<svg width="320.733" height="82.122" viewBox="0 0 320.733 82.122" xmlns="http://www.w3.org/2000/svg"><g id="svgGroup" stroke-linecap="round" fill-rule="evenodd" font-size="9pt" stroke="#00000000" stroke-width="0.25mm" fill="#f08080" style="stroke:#00000000;stroke-width:0.25mm;fill:#f08080"><path d="M 68.7 75.822 L 13.8 75.822 Q 13.417 75.822 12.741 75.852 A 66.891 66.891 0 0 0 12.3 75.872 Q 11.3 75.922 10.8 75.922 Q 8.621 76.021 6.245 75.875 A 48.668 48.668 0 0 1 6.2 75.872 A 7.538 7.538 0 0 1 3.848 75.36 A 6.603 6.603 0 0 1 2.1 74.322 A 7.257 7.257 0 0 1 0.862 72.892 A 5.186 5.186 0 0 1 0 70.022 Q 0 68.522 0.9 66.922 A 5.505 5.505 0 0 1 1.83 65.687 A 4.417 4.417 0 0 1 3.3 64.722 Q 5.3 63.922 7.45 63.922 Q 9.6 63.922 11.8 63.822 L 12.3 63.822 A 109.761 109.761 0 0 0 13.502 63.815 Q 14.036 63.809 14.622 63.799 A 202.082 202.082 0 0 0 15.85 63.772 A 185.81 185.81 0 0 1 17.558 63.738 Q 18.6 63.722 19.5 63.722 A 2.935 2.935 0 0 1 19.439 63.394 Q 19.416 63.218 19.406 63.014 A 6.327 6.327 0 0 1 19.4 62.722 L 19.4 62.322 L 19.4 53.022 A 5.66 5.66 0 0 1 19.698 51.229 A 6.028 6.028 0 0 1 19.7 51.222 A 5.583 5.583 0 0 1 20.02 50.306 A 7.337 7.337 0 0 1 20.4 49.572 Q 20.9 48.722 21.8 47.922 Q 18.1 47.022 14.85 45.122 A 16.855 16.855 0 0 1 10.535 41.469 A 20.804 20.804 0 0 1 9.2 39.722 A 17.557 17.557 0 0 1 6.713 35.112 A 16.01 16.01 0 0 1 6.15 33.122 A 34.551 34.551 0 0 1 5.403 26.296 A 38.226 38.226 0 0 1 5.4 25.822 A 24.259 24.259 0 0 1 6.139 19.695 A 18.573 18.573 0 0 1 9.55 12.772 A 21.881 21.881 0 0 1 17.794 6.416 A 28.048 28.048 0 0 1 20.9 5.222 Q 25.7 3.622 30.65 3.172 A 58.016 58.016 0 0 1 35.905 2.934 A 58.85 58.85 0 0 1 40.6 3.122 Q 44.7 3.422 48.8 3.922 Q 52.9 4.422 56.7 6.122 Q 58.4 6.922 60 8.022 A 18.188 18.188 0 0 1 62.912 10.529 A 20.016 20.016 0 0 1 63 10.622 A 22.627 22.627 0 0 1 66.241 15.087 A 18.975 18.975 0 0 1 67.8 18.822 Q 69.1 23.222 68.7 28.222 Q 68.1 36.022 64.1 40.672 Q 60.1 45.322 54.1 47.422 Q 55.2 48.022 55.9 49.022 A 4.396 4.396 0 0 1 56.594 50.656 A 5.668 5.668 0 0 1 56.7 51.422 Q 56.798 52.993 56.848 56.251 A 291.13 291.13 0 0 1 56.85 56.372 Q 56.9 59.722 56.9 63.822 L 60.9 63.822 Q 62.363 63.904 64.056 63.82 A 39.343 39.343 0 0 0 64.85 63.772 A 26.814 26.814 0 0 1 65.962 63.717 Q 67.429 63.676 68.6 63.822 A 1.26 1.26 0 0 0 68.994 63.889 Q 68.997 63.889 69 63.889 A 1.215 1.215 0 0 0 69.2 63.872 Q 69.5 63.822 69.8 63.822 A 18.769 18.769 0 0 1 71.827 64.17 A 15.689 15.689 0 0 1 72.95 64.472 Q 74.4 64.922 75.8 66.222 A 3.903 3.903 0 0 1 77.101 68.524 A 5.814 5.814 0 0 1 77.2 69.622 Q 77.2 70.722 76.85 71.972 A 7.138 7.138 0 0 1 76.566 72.8 Q 76.284 73.474 75.9 73.922 A 4.999 4.999 0 0 1 74.18 75.037 A 5.872 5.872 0 0 1 73.95 75.122 Q 72.8 75.522 71.65 75.672 A 20.895 20.895 0 0 1 70.83 75.764 Q 70.424 75.8 70.065 75.814 A 10.882 10.882 0 0 1 69.65 75.822 L 68.7 75.822 Z M 191.3 68.622 L 191.3 64.222 Q 191.2 63.022 191.2 61.822 L 191.2 59.422 L 191.2 45.022 Q 189.333 45.089 187.622 45.089 A 81.986 81.986 0 0 1 185.95 45.072 A 168.652 168.652 0 0 1 183.912 45.019 Q 182.979 44.989 182.145 44.949 A 97.502 97.502 0 0 1 181.6 44.922 L 179.1 44.922 L 177.4 44.922 L 175.65 44.922 L 173.2 44.922 A 28.086 28.086 0 0 1 169.33 44.664 A 24.488 24.488 0 0 1 167.9 44.422 A 9.442 9.442 0 0 1 164.853 43.211 A 12.704 12.704 0 0 1 163.1 41.922 A 7.825 7.825 0 0 1 161.988 40.649 A 5.817 5.817 0 0 1 161.15 38.872 A 3.643 3.643 0 0 1 161.019 37.91 Q 161.019 36.729 161.8 35.522 A 7.584 7.584 0 0 1 163.157 33.964 A 5.962 5.962 0 0 1 165.3 32.772 Q 167.4 32.122 169.6 31.822 Q 170.816 31.635 171.157 31.623 A 1.219 1.219 0 0 1 171.2 31.622 L 171.5 31.622 L 171.75 31.672 Q 171.97 31.716 173.082 31.644 A 49.973 49.973 0 0 0 173.4 31.622 L 191.2 31.622 L 191.2 28.422 L 191.2 24.372 Q 191.2 22.508 191.084 21.079 A 23.727 23.727 0 0 0 191 20.222 Q 190.9 19.722 190.75 18.822 Q 190.62 18.04 190.225 17.786 A 0.738 0.738 0 0 0 190.1 17.722 Q 189.671 17.465 189.133 17.465 A 2.381 2.381 0 0 0 188.95 17.472 A 5.576 5.576 0 0 1 188.522 17.489 A 4.994 4.994 0 0 1 187.7 17.422 Q 187 17.322 186.35 17.422 Q 185.7 17.522 185 17.422 L 177.2 17.422 Q 175.5 17.522 173.8 17.422 Q 172.1 17.322 170.4 17.422 A 8.814 8.814 0 0 1 169.79 17.478 Q 169.374 17.501 169.004 17.476 A 5.348 5.348 0 0 1 168.95 17.472 Q 168.3 17.422 167.5 17.422 Q 166.4 17.422 165.2 17.322 Q 164 17.222 163 16.522 A 5.356 5.356 0 0 1 161.752 15.299 A 4.727 4.727 0 0 1 161.1 14.022 Q 160.6 12.522 160.6 10.922 Q 160.5 9.022 161.4 7.122 A 5.023 5.023 0 0 1 161.779 6.38 Q 162.02 5.996 162.31 5.725 A 2.523 2.523 0 0 1 162.7 5.422 A 2.875 2.875 0 0 1 163.181 5.041 Q 163.434 4.878 163.749 4.736 A 6.117 6.117 0 0 1 164.15 4.572 Q 165.1 4.222 165.8 4.022 A 20.75 20.75 0 0 1 169.842 3.483 A 23.078 23.078 0 0 1 170.2 3.472 Q 172.5 3.422 174.7 3.422 L 195.2 3.422 A 53.657 53.657 0 0 0 197.146 3.684 A 62.533 62.533 0 0 0 197.95 3.772 A 10.002 10.002 0 0 1 199.665 4.096 A 8.454 8.454 0 0 1 200.6 4.422 A 7.6 7.6 0 0 1 202.138 5.214 A 8.348 8.348 0 0 1 202.15 5.222 Q 202.9 5.722 203.4 6.422 A 7.436 7.436 0 0 1 204.096 7.779 A 5.728 5.728 0 0 1 204.45 9.222 Q 204.6 10.622 204.8 12.322 Q 205 15.122 205 17.872 L 205 23.422 L 205 57.122 A 2.377 2.377 0 0 0 205.001 57.168 Q 205.006 57.404 205.05 58.672 A 75.478 75.478 0 0 1 205.08 59.83 Q 205.09 60.342 205.095 60.902 A 134.487 134.487 0 0 1 205.1 62.072 L 205.1 66.172 A 79.737 79.737 0 0 1 205.086 67.707 Q 205.071 68.467 205.041 69.142 A 43.061 43.061 0 0 1 205 69.922 Q 204.9 70.922 204.7 72.022 Q 204.5 73.122 204.05 74.122 Q 203.6 75.122 202.8 75.922 A 5.166 5.166 0 0 1 201.759 76.717 A 7.144 7.144 0 0 1 200.7 77.222 A 9.174 9.174 0 0 1 198.256 77.867 A 8.306 8.306 0 0 1 197.3 77.922 Q 196 77.922 194.7 77.372 A 3.974 3.974 0 0 1 193.791 76.847 A 2.98 2.98 0 0 1 192.9 75.722 A 15.3 15.3 0 0 1 191.339 69.824 A 18.257 18.257 0 0 1 191.3 68.622 Z M 89.8 23.822 L 96.7 20.422 A 81.796 81.796 0 0 1 97.919 19.789 Q 98.524 19.482 99.069 19.22 A 44.012 44.012 0 0 1 99.7 18.922 A 179.82 179.82 0 0 1 100.745 18.444 Q 101.21 18.233 101.724 18.003 A 335.094 335.094 0 0 1 102.8 17.522 A 111.126 111.126 0 0 1 104.393 16.696 Q 105.484 16.141 106.75 15.522 Q 109 14.422 111 13.722 L 111 10.622 L 100.4 10.622 A 86.978 86.978 0 0 0 99.263 10.629 Q 98.816 10.635 98.413 10.646 A 45.476 45.476 0 0 0 97.65 10.672 Q 96.5 10.722 95 10.522 Q 93.9 10.322 92.6 10.322 A 5.915 5.915 0 0 1 90.835 10.064 A 5.418 5.418 0 0 1 90.2 9.822 A 4.164 4.164 0 0 1 88.902 8.7 A 5.569 5.569 0 0 1 88.4 7.922 A 5.035 5.035 0 0 1 87.724 5.914 A 5.924 5.924 0 0 1 87.7 5.672 A 5.171 5.171 0 0 1 87.683 5.26 A 4.628 4.628 0 0 1 88.1 3.322 A 4.967 4.967 0 0 1 90.214 1.163 A 6.421 6.421 0 0 1 90.7 0.922 Q 92.5 0.122 94.4 0.122 L 96.7 0.122 Q 98.265 0.22 99.016 0.174 A 5.678 5.678 0 0 0 99.05 0.172 Q 99.8 0.122 101.4 0.122 L 136 0.122 Q 137.375 0.122 139.119 0.048 A 110.368 110.368 0 0 0 139.7 0.022 A 19.465 19.465 0 0 1 140.626 0 A 17.652 17.652 0 0 1 143.75 0.272 Q 145.7 0.622 147.25 1.622 A 4.513 4.513 0 0 1 148.972 3.713 A 6.342 6.342 0 0 1 149.3 4.722 Q 149.668 6.194 149.265 7.252 A 2.984 2.984 0 0 1 148.45 8.422 A 7.641 7.641 0 0 1 146.325 9.754 A 10.168 10.168 0 0 1 144.75 10.272 Q 142.5 10.822 140 10.872 Q 137.891 10.914 136.422 10.85 A 28.35 28.35 0 0 1 135.9 10.822 A 52.029 52.029 0 0 0 133.416 10.729 A 59.306 59.306 0 0 0 132.55 10.722 L 129.2 10.722 Q 127.4 10.722 125.6 10.822 L 125.6 13.922 Q 126.2 14.222 126.85 14.572 Q 127.5 14.922 128.2 15.122 A 36.836 36.836 0 0 1 129.212 15.647 A 33.222 33.222 0 0 1 129.35 15.722 A 35.903 35.903 0 0 0 130.351 16.247 A 39.751 39.751 0 0 0 130.5 16.322 A 103.224 103.224 0 0 0 132.212 17.159 A 94.039 94.039 0 0 0 132.45 17.272 A 100.865 100.865 0 0 1 134.151 18.098 A 110.557 110.557 0 0 1 134.4 18.222 Q 136.3 19.122 138.15 20.122 Q 140 21.122 141.9 22.122 Q 143.8 22.922 145.6 24.122 Q 147.4 25.322 149 26.622 A 3.541 3.541 0 0 1 150.05 28.253 A 4.313 4.313 0 0 1 150.1 28.422 Q 150.264 29.022 150.264 29.607 A 4.152 4.152 0 0 1 150.15 30.572 Q 149.9 31.622 149.15 32.472 A 3.183 3.183 0 0 1 147.367 33.491 A 4.022 4.022 0 0 1 147.2 33.522 Q 144.116 34.197 140.801 33.525 A 18.125 18.125 0 0 1 140.55 33.472 A 33.861 33.861 0 0 1 136.066 32.181 A 29.003 29.003 0 0 1 134.2 31.422 Q 131.5 30.222 129.2 29.122 Q 126.9 28.022 124.6 26.722 Q 123.974 26.364 122.988 25.847 A 102.618 102.618 0 0 0 122.75 25.722 Q 121.6 25.122 120.5 24.522 Q 119.2 23.822 117.7 23.122 A 135.946 135.946 0 0 1 115.206 24.266 A 121.751 121.751 0 0 1 114.4 24.622 Q 113 25.222 111.65 25.822 Q 110.442 26.359 109.675 26.736 A 26.385 26.385 0 0 0 109.5 26.822 Q 106.9 28.222 104.7 29.172 Q 102.5 30.122 99.9 31.322 A 47.385 47.385 0 0 0 96.362 32.914 A 52.449 52.449 0 0 0 95.85 33.172 Q 93.8 34.222 91.5 34.022 Q 89.7 33.922 88 33.122 A 3.598 3.598 0 0 1 86.029 30.832 A 5.05 5.05 0 0 1 85.9 30.322 A 5.181 5.181 0 0 1 85.875 29.837 Q 85.87 29.018 86.1 28.022 A 5.763 5.763 0 0 1 87.153 25.961 A 5.57 5.57 0 0 1 87.45 25.622 A 9.28 9.28 0 0 1 88.775 24.478 A 11.81 11.81 0 0 1 89.8 23.822 Z M 280 21.522 L 280 64.422 A 0.034 0.034 0 0 1 280.024 64.392 Q 280.129 64.341 280.7 64.422 Q 281.4 64.522 282.25 64.672 A 20.072 20.072 0 0 1 283.371 64.902 A 17.108 17.108 0 0 1 283.85 65.022 A 18.759 18.759 0 0 0 284.112 65.09 Q 284.508 65.19 284.698 65.214 A 0.827 0.827 0 0 0 284.8 65.222 A 12.613 12.613 0 0 1 286.068 65.516 Q 287.344 65.888 288.1 66.472 Q 289.185 67.311 288.908 70.143 A 14.179 14.179 0 0 1 288.9 70.222 A 15.5 15.5 0 0 1 288.748 71.473 Q 288.503 72.946 288 73.772 A 3.732 3.732 0 0 1 287.301 74.625 A 3.039 3.039 0 0 1 286.15 75.272 Q 285.144 75.579 283.908 75.579 A 10.384 10.384 0 0 1 283.55 75.572 A 80.721 80.721 0 0 0 282.019 75.535 Q 281.216 75.522 280.328 75.522 A 124.278 124.278 0 0 0 280.3 75.522 A 70.592 70.592 0 0 1 277.233 75.589 A 70.547 70.547 0 0 1 275.7 75.572 Q 273.4 75.522 271.2 75.522 L 268.15 75.522 L 265.7 75.522 Q 264.5 75.522 263.25 75.572 A 55.928 55.928 0 0 1 262.249 75.603 Q 261.806 75.612 261.319 75.617 A 101.798 101.798 0 0 1 260.3 75.622 L 255.55 75.622 Q 253.2 75.622 250.8 75.522 A 14.42 14.42 0 0 1 249.78 75.484 Q 249.261 75.447 248.688 75.375 A 24.485 24.485 0 0 1 248.3 75.322 A 9.557 9.557 0 0 1 246.118 74.751 A 8.751 8.751 0 0 1 245.7 74.572 Q 244.5 74.022 243.6 73.022 A 4.203 4.203 0 0 1 242.727 71.473 A 5.775 5.775 0 0 1 242.5 70.422 A 10.229 10.229 0 0 1 242.467 69.891 Q 242.419 68.502 242.804 67.588 A 2.961 2.961 0 0 1 243.15 66.972 Q 244 65.822 245.45 65.372 A 11.322 11.322 0 0 1 247.938 64.905 A 13.015 13.015 0 0 1 248.55 64.872 A 29.208 29.208 0 0 0 250.02 64.792 Q 250.809 64.729 251.5 64.622 Q 251.5 63.722 251.45 61.922 Q 251.4 60.122 251.4 58.172 L 251.4 54.472 L 251.4 51.822 L 251.4 22.922 Q 251.4 22.622 251.25 20.922 A 23.016 23.016 0 0 1 251.175 19.648 Q 251.136 18.439 251.2 17.022 Q 249.8 16.922 248.65 16.922 Q 247.5 16.922 246.45 16.622 Q 245.4 16.322 244.55 15.572 A 4.814 4.814 0 0 1 243.896 14.856 Q 243.614 14.481 243.351 14.011 A 10.535 10.535 0 0 1 243 13.322 A 6.333 6.333 0 0 1 242.596 12.25 Q 242.424 11.615 242.424 11.009 A 4.191 4.191 0 0 1 242.9 9.072 Q 243.9 7.122 245.9 6.322 A 16.573 16.573 0 0 1 248.957 5.471 A 14.663 14.663 0 0 1 250.05 5.322 Q 252.1 5.122 254.3 5.122 L 261.1 5.122 Q 264.3 5.122 267.35 5.172 Q 270.4 5.222 273.6 5.222 L 280.5 5.222 Q 282.09 5.222 284.031 5.616 A 25.334 25.334 0 0 1 284.3 5.672 Q 286.4 6.122 287.7 7.722 Q 288.3 8.522 288.65 9.572 A 5.895 5.895 0 0 1 288.956 11.448 A 6.039 6.039 0 0 1 288.95 11.722 Q 288.9 12.822 288.5 13.872 A 3.996 3.996 0 0 1 287.981 14.835 A 3.336 3.336 0 0 1 287.3 15.522 Q 287.138 15.847 286.514 16.106 A 4.692 4.692 0 0 1 286.2 16.222 Q 284.5 17.022 283 16.822 A 7.814 7.814 0 0 0 281.967 16.756 Q 281.304 16.756 280.59 16.858 A 11.984 11.984 0 0 0 279.7 17.022 Q 279.9 18.422 279.95 19.572 A 63.831 63.831 0 0 1 279.98 20.386 Q 279.99 20.704 279.995 20.988 A 31.19 31.19 0 0 1 280 21.522 Z M 232.3 32.122 L 232.5 32.122 A 4.487 4.487 0 0 1 233.251 32.183 A 3.999 3.999 0 0 1 233.45 32.222 A 4.269 4.269 0 0 0 234.214 32.319 A 4.864 4.864 0 0 0 234.4 32.322 A 8.751 8.751 0 0 0 234.994 32.419 A 11.224 11.224 0 0 0 235.5 32.472 Q 236.1 32.522 236.7 32.622 Q 237.8 32.822 238.9 33.372 Q 240 33.922 240.5 35.022 A 4.452 4.452 0 0 1 241.145 36.81 A 5.778 5.778 0 0 1 241.2 37.622 Q 241.2 38.422 241.15 39.072 Q 241.1 39.722 240.9 40.522 Q 240.7 41.322 240.45 42.222 A 2.694 2.694 0 0 1 240.08 43.033 A 2.364 2.364 0 0 1 239.5 43.622 Q 238.269 44.502 237.115 44.84 A 5.594 5.594 0 0 1 236.8 44.922 Q 235.4 45.097 233.464 45.043 A 37.119 37.119 0 0 1 232.9 45.022 A 55.616 55.616 0 0 0 231.794 44.985 Q 230.2 44.947 229 45.022 Q 228.9 45.022 228.8 45.122 L 228.7 45.122 L 228.6 45.222 L 228.6 45.522 L 228.6 48.372 L 228.6 51.772 L 228.6 55.172 L 228.6 58.122 Q 228.8 63.322 228.6 68.322 L 228.6 69.722 Q 228.6 71.022 228.55 72.572 Q 228.5 74.122 228.3 75.622 Q 228.1 77.122 227.6 78.472 A 6.715 6.715 0 0 1 226.911 79.849 A 5.59 5.59 0 0 1 226.2 80.722 A 3.933 3.933 0 0 1 223.338 82.112 A 5.433 5.433 0 0 1 223 82.122 L 222.8 82.022 Q 220.4 81.922 218.95 80.622 Q 217.5 79.322 216.75 77.422 Q 216 75.522 215.8 73.472 A 46.874 46.874 0 0 1 215.663 71.765 Q 215.616 70.983 215.604 70.281 A 27.149 27.149 0 0 1 215.6 69.822 L 215.6 10.422 L 215.6 9.472 Q 215.6 8.622 215.8 7.472 A 13.368 13.368 0 0 1 216.148 5.996 A 16.26 16.26 0 0 1 216.45 5.072 Q 216.9 3.822 217.7 3.022 A 3.3 3.3 0 0 1 218.437 2.477 Q 218.8 2.275 219.252 2.121 A 6.924 6.924 0 0 1 219.75 1.972 Q 220.993 1.65 222.024 1.624 A 7.104 7.104 0 0 1 222.2 1.622 A 5.319 5.319 0 0 1 224.283 2.021 A 5.04 5.04 0 0 1 225.9 3.122 A 7.002 7.002 0 0 1 226.803 4.216 Q 227.312 4.989 227.498 5.804 A 4.273 4.273 0 0 1 227.55 6.072 Q 227.8 7.622 228 9.322 Q 228.1 9.722 228.1 10.522 Q 228.3 12.222 228.35 14.022 Q 228.4 15.822 228.5 17.622 Q 228.5 18.722 228.55 19.772 Q 228.6 20.822 228.6 21.922 A 4.807 4.807 0 0 0 228.535 22.581 Q 228.533 22.641 228.533 22.7 A 4.11 4.11 0 0 0 228.55 23.072 A 12.112 12.112 0 0 1 228.596 23.837 A 10.431 10.431 0 0 1 228.6 24.122 L 228.6 29.722 L 228.6 30.822 A 3.133 3.133 0 0 0 228.677 31.529 A 2.682 2.682 0 0 0 228.8 31.922 Q 228.8 32.007 229.513 32.02 A 15.662 15.662 0 0 0 229.8 32.022 L 230.9 32.022 A 6.929 6.929 0 0 0 231.291 32.098 Q 231.788 32.179 232.134 32.146 A 1.628 1.628 0 0 0 232.3 32.122 Z M 303.4 58.522 L 303.4 69.822 A 68.601 68.601 0 0 1 303.385 71.287 Q 303.353 72.791 303.25 73.822 A 10.388 10.388 0 0 1 303.093 74.838 Q 302.866 75.963 302.37 77.42 A 32.888 32.888 0 0 1 302.3 77.622 A 6.81 6.81 0 0 1 301.579 79.152 A 5.775 5.775 0 0 1 300.8 80.122 A 2.994 2.994 0 0 1 299.719 80.797 Q 298.855 81.122 297.6 81.122 Q 297.192 81.122 296.646 81.053 A 14.184 14.184 0 0 1 296.1 80.972 A 4.361 4.361 0 0 1 295.529 80.84 Q 295.028 80.685 294.7 80.422 A 3.38 3.38 0 0 1 293.671 79.445 Q 293.373 79.021 293.15 78.472 Q 292.6 77.122 292.3 75.622 Q 292 74.122 291.95 72.722 Q 291.9 71.322 291.9 70.522 L 291.9 46.522 L 287.5 46.422 A 7.494 7.494 0 0 1 286.448 46.344 A 9.868 9.868 0 0 1 285.55 46.172 Q 284.5 45.922 283.55 45.372 A 5.34 5.34 0 0 1 282.056 44.075 A 6.203 6.203 0 0 1 281.9 43.872 Q 281.2 42.922 281.1 41.422 A 10.195 10.195 0 0 1 281.038 40.296 Q 281.038 39.329 281.214 38.309 A 13.654 13.654 0 0 1 281.35 37.622 A 4.072 4.072 0 0 1 282.843 35.298 A 6.439 6.439 0 0 1 284.1 34.522 A 5.411 5.411 0 0 1 285.523 33.984 A 6.605 6.605 0 0 1 286.15 33.872 Q 287.3 33.722 288.3 33.822 L 291.9 33.722 L 291.9 10.622 L 291.9 7.972 Q 291.9 6.622 292.2 5.322 A 53.777 53.777 0 0 0 292.377 4.875 Q 292.459 4.665 292.53 4.476 A 31.781 31.781 0 0 0 292.55 4.422 A 37.217 37.217 0 0 1 292.702 4.025 Q 292.782 3.818 292.874 3.588 A 60.667 60.667 0 0 1 292.9 3.522 A 9.722 9.722 0 0 1 293.348 2.839 Q 293.577 2.521 293.806 2.269 A 4.584 4.584 0 0 1 294.1 1.972 A 3.649 3.649 0 0 1 294.67 1.55 Q 295.147 1.26 295.8 1.022 Q 296.3 0.822 296.85 0.772 A 12.112 12.112 0 0 1 297.615 0.726 A 10.431 10.431 0 0 1 297.9 0.722 A 5.891 5.891 0 0 1 299.061 0.83 Q 299.769 0.972 300.324 1.303 A 3.421 3.421 0 0 1 300.65 1.522 Q 301.7 2.322 302.5 3.722 Q 302.787 4.152 302.945 4.839 A 6.533 6.533 0 0 1 303.05 5.422 Q 303.2 6.522 303.3 7.672 A 31.022 31.022 0 0 1 303.361 8.493 Q 303.385 8.898 303.395 9.257 A 16.316 16.316 0 0 1 303.4 9.672 L 303.4 10.722 L 303.4 58.522 Z M 94.9 53.822 L 141 53.822 A 83.009 83.009 0 0 1 144.838 54.116 A 90.162 90.162 0 0 1 144.9 54.122 Q 146.9 54.322 148.7 55.122 A 6.727 6.727 0 0 1 149.843 55.701 Q 150.908 56.387 151.35 57.372 Q 152 58.822 152.2 60.822 A 87.998 87.998 0 0 1 152.278 62.405 Q 152.311 63.215 152.335 64.113 A 150.431 150.431 0 0 1 152.35 64.722 A 64.793 64.793 0 0 1 152.367 66.194 A 67.061 67.061 0 0 1 152.3 69.172 Q 152.2 71.422 152 73.622 A 25.373 25.373 0 0 1 151.692 75.909 A 19.717 19.717 0 0 1 151.3 77.622 Q 151 78.722 150.6 79.572 Q 150.2 80.422 149 80.822 Q 147.9 81.222 146.75 81.322 Q 145.6 81.422 144.5 81.422 L 93.4 81.222 A 33.786 33.786 0 0 0 91.719 81.137 A 41.647 41.647 0 0 0 90.6 81.122 A 4.72 4.72 0 0 1 89.165 80.911 A 4.051 4.051 0 0 1 88 80.322 Q 87.9 80.322 87.7 80.122 Q 86.7 79.322 86.35 77.922 A 13.165 13.165 0 0 1 86.114 76.775 Q 86 76.05 86 75.422 Q 85.9 73.622 85.75 71.822 A 42.64 42.64 0 0 1 85.602 68.749 A 38.964 38.964 0 0 1 85.6 68.322 L 85.6 63.622 A 20.57 20.57 0 0 1 85.741 61.278 A 27.549 27.549 0 0 1 86.1 59.022 A 8.512 8.512 0 0 1 86.378 57.924 Q 86.561 57.37 86.81 56.924 A 4.291 4.291 0 0 1 87.1 56.472 A 3.826 3.826 0 0 1 87.932 55.659 Q 88.503 55.241 89.3 54.922 Q 92.1 53.822 94.9 53.822 Z M 308.5 72.522 L 308.5 11.722 L 308.5 9.172 A 19.211 19.211 0 0 1 308.673 6.563 A 17.625 17.625 0 0 1 308.7 6.372 Q 308.9 5.022 309.25 3.822 A 5.478 5.478 0 0 1 309.592 2.93 Q 309.846 2.416 310.192 2.036 A 3.306 3.306 0 0 1 310.3 1.922 Q 311.4 0.922 312.35 0.672 Q 313.068 0.483 314.043 0.437 A 13.913 13.913 0 0 1 314.7 0.422 A 5.063 5.063 0 0 1 316.218 0.642 A 4.252 4.252 0 0 1 317.6 1.372 Q 318.8 2.322 319.4 3.922 Q 320.3 6.022 320.4 8.222 Q 320.5 10.422 320.6 12.722 L 320.6 13.222 A 391.161 391.161 0 0 1 320.733 23.511 A 418.306 418.306 0 0 1 320.7 28.772 Q 320.6 36.722 320.6 43.822 L 320.6 68.822 Q 320.6 71.422 320.45 73.822 Q 320.3 76.222 319.3 78.322 A 5.267 5.267 0 0 1 317.863 80.171 A 6.479 6.479 0 0 1 317.4 80.522 A 8.423 8.423 0 0 1 316.681 80.935 Q 316.011 81.273 315.45 81.372 Q 314.702 81.504 313.607 81.288 A 9.805 9.805 0 0 1 313.3 81.222 A 5.272 5.272 0 0 1 311.976 80.779 A 4.28 4.28 0 0 1 310.85 79.972 Q 309.9 79.022 309.4 77.822 A 10.391 10.391 0 0 1 308.786 75.74 A 11.931 11.931 0 0 1 308.7 75.222 A 19.632 19.632 0 0 1 308.51 73.096 A 17.338 17.338 0 0 1 308.5 72.522 Z M 144.6 37.022 L 145.1 37.022 Q 146.8 37.022 148.75 36.922 Q 150.202 36.848 151.488 37.023 A 11.875 11.875 0 0 1 152.35 37.172 Q 154 37.522 155.05 38.772 A 3.789 3.789 0 0 1 155.7 39.942 Q 156.1 41.056 156.1 42.722 A 4.218 4.218 0 0 1 155.467 44.909 Q 154.975 45.735 154.1 46.522 Q 152.5 47.922 150.25 48.072 Q 148 48.222 146 48.122 Q 145.544 48.031 145.171 48.023 A 3.308 3.308 0 0 0 145.1 48.022 L 144.2 48.022 L 89.1 48.022 L 88.2 48.022 A 7.83 7.83 0 0 1 87.453 47.984 Q 86.941 47.935 86.35 47.822 A 18.136 18.136 0 0 1 84.611 47.398 A 20.392 20.392 0 0 1 84.2 47.272 A 4.141 4.141 0 0 1 83.021 46.688 A 3.708 3.708 0 0 1 82.4 46.122 Q 81.2 44.822 81.2 43.022 A 5.638 5.638 0 0 1 81.238 42.349 Q 81.279 42.009 81.364 41.726 A 2.458 2.458 0 0 1 81.55 41.272 A 5.014 5.014 0 0 1 82.109 40.45 A 6.23 6.23 0 0 1 82.5 40.022 Q 83.8 38.822 85.2 38.022 A 8.053 8.053 0 0 1 87.541 37.118 A 7.524 7.524 0 0 1 88.1 37.022 Q 88.4 37.022 88.7 37.072 A 1.215 1.215 0 0 0 88.9 37.089 Q 89.098 37.089 89.297 37.023 A 1.428 1.428 0 0 0 89.3 37.022 A 110.104 110.104 0 0 0 91.33 37.083 Q 93.15 37.122 95.4 37.122 L 102.9 37.122 Q 106.8 37.122 110.6 37.072 A 644.833 644.833 0 0 1 113.753 37.038 Q 115.19 37.026 116.467 37.023 A 358.855 358.855 0 0 1 117.3 37.022 Q 123.6 37.022 130.7 36.922 A 333.743 333.743 0 0 1 135.4 36.889 A 312.966 312.966 0 0 1 144.6 37.022 Z M 267.5 17.022 L 263.7 17.022 Q 263.117 16.925 262.959 17.348 A 0.725 0.725 0 0 0 262.95 17.372 Q 262.8 17.822 262.8 18.522 Q 262.732 19.206 262.687 20.123 A 57.475 57.475 0 0 0 262.65 21.022 A 29.684 29.684 0 0 0 262.633 22.011 A 26.824 26.824 0 0 0 262.7 23.922 L 262.8 62.522 A 1.998 1.998 0 0 0 262.809 62.699 Q 262.836 62.994 262.94 63.521 A 19.26 19.26 0 0 0 262.95 63.572 Q 263.073 64.189 263.637 64.366 A 1.496 1.496 0 0 0 263.9 64.422 L 268.4 64.422 L 268.4 25.822 L 268.4 24.872 L 268.4 22.622 Q 268.4 21.322 268.35 20.072 Q 268.3 18.822 268.2 18.222 A 4.142 4.142 0 0 0 268.184 17.869 A 5.3 5.3 0 0 0 268.15 17.572 A 0.478 0.478 0 0 0 268.003 17.297 Q 267.862 17.158 267.59 17.054 A 2.317 2.317 0 0 0 267.5 17.022 Z M 55.6 29.722 A 8.686 8.686 0 0 0 55.811 28.291 Q 55.844 27.747 55.8 27.222 A 14.616 14.616 0 0 0 55.379 24.163 Q 54.895 22.268 53.87 20.876 A 8.025 8.025 0 0 0 52.55 19.472 A 13.182 13.182 0 0 0 48.183 17.089 A 18.304 18.304 0 0 0 44.7 16.322 A 228.732 228.732 0 0 0 42.417 16.09 Q 41.39 15.991 40.236 15.886 A 478.576 478.576 0 0 0 37.8 15.672 Q 33.7 15.322 29.75 15.922 Q 25.8 16.522 22.8 18.372 A 7.436 7.436 0 0 0 19.518 22.77 A 10.769 10.769 0 0 0 19.2 24.222 A 17.509 17.509 0 0 0 19.062 26.395 A 15.427 15.427 0 0 0 19.25 28.822 Q 19.6 31.022 20.9 32.722 A 9.396 9.396 0 0 0 22.737 34.521 A 12.736 12.736 0 0 0 24.5 35.622 Q 26.8 36.822 30.4 37.122 Q 33.9 37.522 37.55 37.822 Q 41.2 38.122 44.7 37.422 A 27.217 27.217 0 0 0 47.931 36.64 A 29.927 29.927 0 0 0 48.15 36.572 Q 49.9 36.022 51.4 35.122 Q 52.9 34.222 54 32.872 Q 55.1 31.522 55.6 29.722 Z M 100.7 70.822 L 131 70.822 Q 132.4 70.922 133.7 71.022 Q 134.8 71.122 136 71.122 A 12.539 12.539 0 0 0 137.27 71.061 A 9.817 9.817 0 0 0 138.2 70.922 Q 139.2 70.822 139.4 70.322 A 3.231 3.231 0 0 0 139.52 69.951 Q 139.633 69.527 139.7 68.922 A 12.033 12.033 0 0 0 139.768 68.174 Q 139.8 67.663 139.8 67.072 Q 139.8 66.022 139.2 65.222 Q 138.5 64.422 137.25 64.372 Q 136 64.322 135 64.422 L 108.2 64.422 Q 106 64.222 103.9 64.272 Q 101.8 64.322 99.6 64.422 Q 98.8 64.422 98.35 64.472 A 0.501 0.501 0 0 0 98.026 64.653 Q 97.819 64.888 97.7 65.422 A 5.225 5.225 0 0 0 97.526 66.299 A 4.425 4.425 0 0 0 97.5 66.772 L 97.5 68.022 A 0.642 0.642 0 0 1 97.554 68.172 Q 97.567 68.231 97.567 68.289 A 0.548 0.548 0 0 1 97.55 68.422 A 1.468 1.468 0 0 0 97.52 68.586 Q 97.5 68.735 97.5 68.922 Q 97.5 69.422 97.55 69.922 A 1.428 1.428 0 0 0 97.601 70.191 Q 97.688 70.481 97.9 70.622 A 0.691 0.691 0 0 0 98.094 70.756 Q 98.275 70.841 98.548 70.872 A 2.239 2.239 0 0 0 98.55 70.872 Q 99 70.922 99.5 70.922 A 6.217 6.217 0 0 0 99.903 70.908 Q 100.128 70.894 100.383 70.864 A 12.701 12.701 0 0 0 100.7 70.822 Z M 31.9 63.822 L 42.5 63.822 L 44.5 63.822 Q 44.41 63.461 44.401 62.855 A 9.202 9.202 0 0 1 44.4 62.722 L 44.4 62.322 L 44.4 53.022 A 4.166 4.166 0 0 1 44.46 52.336 A 5.591 5.591 0 0 1 44.6 51.722 Q 44.8 51.222 45 50.522 A 4.147 4.147 0 0 1 45.343 49.691 A 5.376 5.376 0 0 1 45.7 49.122 Q 44.8 49.222 43.9 49.222 L 42.1 49.222 Q 39.5 49.222 36.65 49.272 Q 33.8 49.322 30.9 49.122 A 6.917 6.917 0 0 1 31.391 50.135 Q 31.619 50.733 31.688 51.304 A 4.194 4.194 0 0 1 31.7 51.422 Q 31.798 52.993 31.848 56.251 A 291.13 291.13 0 0 1 31.85 56.372 Q 31.9 59.722 31.9 63.822 Z" vector-effect="non-scaling-stroke"/></g></svg>